<?xml version="1.0" encoding="UTF-8"?>
<svg xmlns="http://www.w3.org/2000/svg" xmlns:xlink="http://www.w3.org/1999/xlink" width="1133.8583pt" height="1133.8583pt" viewBox="0 0 1133.8583 1133.8583" version="1.1">
<g id="surface1">
<path style="fill-rule:evenodd;fill:rgb(13.729858%,12.159729%,12.548828%);fill-opacity:1;stroke-width:0.5;stroke-linecap:butt;stroke-linejoin:miter;stroke:rgb(13.729858%,12.159729%,12.548828%);stroke-opacity:1;stroke-miterlimit:22.925586;" d="M 566.574219 1039.752831 C 805.160156 1039.752831 998.574219 846.338769 998.574219 607.752831 C 998.574219 369.166894 805.160156 175.752831 566.574219 175.752831 C 327.988281 175.752831 134.574219 369.166894 134.574219 607.752831 C 134.574219 846.338769 327.988281 1039.752831 566.574219 1039.752831 Z M 566.574219 1039.752831 " transform="matrix(1,0,0,-1,0,1133.8583)"/>
<path style=" stroke:none;fill-rule:nonzero;fill:rgb(100%,100%,100%);fill-opacity:1;" d="M 584.664063 464.210938 L 632.039063 464.210938 L 632.039063 448.730469 L 584.664063 448.730469 L 584.976563 404.144531 L 569.183594 404.144531 L 568.875 448.730469 L 540.316406 448.730469 L 540.316406 464.210938 L 568.875 464.210938 L 568.875 566.078125 C 568.875 583.621094 569.597656 594.253906 571.042969 597.96875 C 573.3125 603.746094 579.429688 609.941406 589.621094 609.933594 L 901.644531 609.734375 L 901.644531 592.8125 L 601.523438 593.40625 C 596.628906 593.414063 593.476563 592.796875 592.40625 592.394531 C 587.886719 590.683594 585.285156 585.996094 584.664063 578.152344 C 584.460938 575.261719 584.355469 571.238281 584.355469 566.078125 Z M 584.664063 464.210938 "/>
<path style=" stroke:none;fill-rule:nonzero;fill:rgb(100%,100%,100%);fill-opacity:1;" d="M 318.960938 447.632813 L 403.601563 447.632813 C 414.515625 447.632813 423.445313 456.558594 423.445313 467.472656 L 423.445313 590.257813 C 423.445313 601.167969 414.515625 610.097656 403.601563 610.097656 L 318.960938 610.097656 C 308.046875 610.097656 299.117188 601.167969 299.117188 590.257813 L 299.117188 467.472656 C 299.117188 456.558594 308.046875 447.632813 318.960938 447.632813 "/>
<path style=" stroke:none;fill-rule:nonzero;fill:rgb(13.729858%,12.159729%,12.548828%);fill-opacity:1;" d="M 323.867188 464.640625 L 398.695313 464.640625 C 402.953125 464.640625 406.4375 468.121094 406.4375 472.378906 L 406.4375 585.351563 C 406.4375 589.609375 402.953125 593.089844 398.695313 593.089844 L 323.867188 593.089844 C 319.609375 593.089844 316.125 589.609375 316.125 585.351563 L 316.125 472.378906 C 316.125 468.121094 319.609375 464.640625 323.867188 464.640625 "/>
<path style=" stroke:none;fill-rule:nonzero;fill:rgb(100%,100%,100%);fill-opacity:1;" d="M 231.503906 386.804688 L 231.503906 566.386719 C 231.503906 575.054688 231.503906 581.246094 231.503906 584.964844 C 231.503906 602.703125 240.335938 609.734375 258.378906 609.734375 C 261.578125 609.734375 264.632813 609.734375 273.300781 609.734375 L 281.042969 609.734375 L 281.042969 593.53125 L 273.300781 593.53125 C 246.855469 593.53125 246.984375 592.679688 246.984375 566.386719 L 247.292969 387.113281 L 247.601563 379.375 L 231.8125 379.375 Z M 231.503906 386.804688 "/>
<path style=" stroke:none;fill-rule:nonzero;fill:rgb(100%,100%,100%);fill-opacity:1;" d="M 527.191406 385.257813 C 519.140625 385.257813 513 385.257813 508.769531 385.257813 C 483.472656 385.257813 472.488281 387.675781 472.488281 416.066406 C 472.488281 427.03125 471.851563 437.765625 472.078125 448.730469 L 442.046875 448.730469 L 442.046875 464.210938 L 472.078125 464.210938 L 471.769531 609.734375 L 487.25 609.734375 L 487.25 464.210938 L 526.222656 464.210938 L 526.222656 448.730469 L 487.25 448.730469 L 487.25 433.867188 C 487.25 429.121094 487.25 425.457031 487.25 422.875 C 487.25 409.074219 489.910156 401.636719 503.402344 400.84375 C 507.0625 400.628906 509.390625 400.738281 511.554688 400.738281 C 513.722656 400.738281 517.59375 400.738281 523.167969 400.738281 C 525.023438 400.738281 526.367188 400.738281 527.191406 400.738281 L 534.933594 400.738281 L 534.933594 385.257813 Z M 527.191406 385.257813 "/>
<path style=" stroke:none;fill-rule:nonzero;fill:rgb(81.323242%,64.852905%,31.272888%);fill-opacity:1;" d="M 807.074219 421.691406 C 807.078125 420.191406 807.070313 418.816406 807.113281 417.5625 C 807.480469 406.851563 806.640625 404.0625 819.722656 404.136719 L 870.625 404.429688 C 887.332031 404.527344 889.800781 406.015625 889.671875 421.171875 L 889.371094 455.65625 C 889.238281 471.125 890.488281 475.152344 872.832031 475.253906 L 825.230469 475.535156 C 799.101563 475.6875 795.769531 485.339844 795.75 502.300781 L 795.679688 570.484375 L 795.679688 570.726563 L 901.644531 570.484375 L 901.644531 558.433594 L 806.992188 558.433594 L 806.992188 523.007813 C 806.992188 520.921875 807.03125 518.027344 806.992188 514.332031 C 806.796875 495.582031 807.328125 487.578125 825.894531 487.582031 L 872.789063 487.582031 C 874.019531 487.582031 875.789063 487.582031 878.097656 487.582031 C 894.15625 487.582031 898.804688 482.039063 900.230469 471.046875 C 900.816406 466.53125 900.859375 463.492188 900.925781 455.773438 L 901.300781 411.792969 C 901.457031 393.125 893.863281 392.152344 877.867188 392.152344 C 875.558594 392.152344 873.710938 392.148438 872.328125 392.152344 L 829.40625 392.199219 C 810.351563 392.21875 797.199219 390.15625 796.117188 410.734375 C 796.050781 412.007813 796.019531 413.375 796.027344 414.832031 L 796.167969 445.890625 L 806.992188 445.890625 Z M 680.148438 421.691406 C 680.152344 420.191406 680.140625 418.816406 680.183594 417.5625 C 680.554688 406.851563 679.714844 404.0625 692.796875 404.136719 L 743.699219 404.429688 C 760.40625 404.527344 762.875 406.015625 762.742188 421.171875 L 762.445313 455.65625 C 762.3125 471.125 763.558594 475.152344 745.90625 475.253906 L 698.304688 475.535156 C 672.171875 475.6875 668.84375 485.339844 668.824219 502.300781 L 668.753906 570.484375 L 668.753906 570.726563 L 774.71875 570.484375 L 774.71875 558.433594 L 680.066406 558.433594 L 680.066406 523.007813 C 680.066406 520.921875 680.101563 518.027344 680.066406 514.332031 C 679.871094 495.582031 680.402344 487.578125 698.96875 487.582031 L 745.863281 487.582031 C 747.09375 487.582031 748.863281 487.582031 751.171875 487.582031 C 767.230469 487.582031 771.878906 482.039063 773.304688 471.046875 C 773.890625 466.53125 773.933594 463.492188 774 455.773438 L 774.375 411.792969 C 774.53125 393.125 766.9375 392.152344 750.941406 392.152344 C 748.632813 392.152344 746.785156 392.148438 745.398438 392.152344 L 702.476563 392.199219 C 683.421875 392.21875 670.273438 390.15625 669.191406 410.734375 C 669.125 412.007813 669.09375 413.375 669.101563 414.832031 L 669.242188 445.890625 L 680.066406 445.890625 Z M 680.148438 421.691406 "/>
<path style=" stroke:none;fill-rule:nonzero;fill:rgb(100%,100%,100%);fill-opacity:1;" d="M 322.582031 682.9375 C 327.15625 682.9375 331.78125 684.523438 336.464844 687.699219 L 333.558594 691.492188 C 330.597656 688.910156 326.859375 687.617188 322.339844 687.617188 C 317.496094 687.617188 313.476563 689.191406 310.273438 692.339844 C 307.070313 695.488281 305.472656 699.480469 305.472656 704.324219 C 305.472656 708.738281 306.992188 712.570313 310.03125 715.828125 C 313.070313 719.082031 316.824219 720.710938 321.289063 720.710938 C 325.703125 720.710938 329.710938 719.335938 333.316406 716.59375 L 336.222656 720.226563 C 334.660156 721.730469 332.523438 722.96875 329.804688 723.9375 C 327.089844 724.90625 324.382813 725.390625 321.695313 725.390625 C 315.773438 725.390625 310.8125 723.359375 306.800781 719.296875 C 302.792969 715.234375 300.789063 710.054688 300.789063 703.761719 C 300.789063 697.734375 302.996094 692.703125 307.40625 688.667969 C 311.660156 684.847656 316.714844 682.9375 322.582031 682.9375 Z M 389.851563 704.164063 C 389.851563 709.757813 387.886719 714.65625 383.960938 718.851563 C 379.871094 723.210938 374.921875 725.390625 369.109375 725.390625 C 363.296875 725.390625 358.347656 723.210938 354.257813 718.851563 C 350.328125 714.65625 348.367188 709.757813 348.367188 704.164063 C 348.367188 698.566406 350.371094 693.628906 354.378906 689.351563 C 358.386719 685.074219 363.296875 682.9375 369.109375 682.9375 C 374.921875 682.9375 379.871094 685.117188 383.960938 689.472656 C 387.886719 693.671875 389.851563 698.566406 389.851563 704.164063 Z M 385.171875 704.164063 C 385.171875 699.75 383.609375 695.890625 380.488281 692.582031 C 377.367188 689.273438 373.574219 687.617188 369.109375 687.617188 C 364.644531 687.617188 360.847656 689.273438 357.726563 692.582031 C 354.605469 695.890625 353.046875 699.75 353.046875 704.164063 C 353.046875 708.574219 354.605469 712.4375 357.726563 715.746094 C 360.847656 719.054688 364.644531 720.710938 369.109375 720.710938 C 373.574219 720.710938 377.367188 719.054688 380.488281 715.746094 C 383.609375 712.4375 385.171875 708.574219 385.171875 704.164063 Z M 423.304688 670.667969 C 418.515625 670.722656 415.472656 671.152344 414.183594 671.960938 C 412.191406 673.195313 411.195313 676.101563 411.195313 680.675781 L 411.195313 683.90625 L 422.738281 683.90625 L 422.738281 688.585938 L 411.195313 688.585938 L 411.195313 724.421875 L 406.515625 725.390625 L 406.515625 688.585938 L 401.027344 688.585938 L 402.15625 683.90625 L 406.515625 683.90625 L 406.515625 679.707031 C 406.515625 674.273438 408.074219 670.507813 411.195313 668.40625 C 413.5625 666.792969 417.195313 665.988281 422.09375 665.988281 Z M 453.363281 670.667969 C 448.578125 670.722656 445.535156 671.152344 444.246094 671.960938 C 442.253906 673.195313 441.257813 676.101563 441.257813 680.675781 L 441.257813 683.90625 L 452.800781 683.90625 L 452.800781 688.585938 L 441.257813 688.585938 L 441.257813 724.421875 L 436.578125 725.390625 L 436.578125 688.585938 L 431.089844 688.585938 L 432.21875 683.90625 L 436.578125 683.90625 L 436.578125 679.707031 C 436.578125 674.273438 438.136719 670.507813 441.257813 668.40625 C 443.625 666.792969 447.257813 665.988281 452.15625 665.988281 Z M 498.277344 692.378906 L 467.445313 711.265625 C 468.414063 713.527344 470.082031 715.570313 472.449219 717.402344 C 475.300781 719.605469 478.421875 720.710938 481.8125 720.710938 C 486.65625 720.710938 491.765625 718.476563 497.148438 714.011719 L 497.148438 719.660156 C 495.425781 721.382813 493.140625 722.769531 490.289063 723.816406 C 487.433594 724.867188 484.71875 725.390625 482.136719 725.390625 C 475.949219 725.390625 470.902344 723.320313 467 719.175781 C 463.101563 715.03125 461.148438 709.867188 461.148438 703.679688 C 461.148438 697.597656 463.15625 692.621094 467.164063 688.746094 C 471.171875 684.875 476.214844 682.9375 482.296875 682.9375 C 485.792969 682.9375 489.078125 683.929688 492.144531 685.921875 C 494.941406 687.699219 496.988281 689.851563 498.277344 692.378906 Z M 490.933594 691.167969 C 488.78125 688.800781 485.902344 687.617188 482.296875 687.617188 C 477.5625 687.617188 473.632813 689.164063 470.511719 692.257813 C 467.390625 695.351563 465.832031 699.1875 465.832031 703.761719 C 465.832031 705.050781 465.9375 706.15625 466.15625 707.070313 Z M 546.257813 692.378906 L 515.425781 711.265625 C 516.394531 713.527344 518.0625 715.570313 520.429688 717.402344 C 523.28125 719.605469 526.402344 720.710938 529.792969 720.710938 C 534.636719 720.710938 539.746094 718.476563 545.128906 714.011719 L 545.128906 719.660156 C 543.40625 721.382813 541.117188 722.769531 538.265625 723.816406 C 535.414063 724.867188 532.699219 725.390625 530.113281 725.390625 C 523.925781 725.390625 518.882813 723.320313 514.980469 719.175781 C 511.082031 715.03125 509.128906 709.867188 509.128906 703.679688 C 509.128906 697.597656 511.132813 692.621094 515.144531 688.746094 C 519.152344 684.875 524.195313 682.9375 530.277344 682.9375 C 533.773438 682.9375 537.054688 683.929688 540.125 685.921875 C 542.921875 687.699219 544.964844 689.851563 546.257813 692.378906 Z M 538.914063 691.167969 C 536.761719 688.800781 533.882813 687.617188 530.277344 687.617188 C 525.542969 687.617188 521.613281 689.164063 518.492188 692.257813 C 515.371094 695.351563 513.8125 699.1875 513.8125 703.761719 C 513.8125 705.050781 513.917969 706.15625 514.132813 707.070313 Z M 649.722656 712.960938 C 649.722656 716.996094 648.296875 720.117188 645.445313 722.324219 C 642.863281 724.367188 639.472656 725.390625 635.277344 725.390625 C 630.273438 725.390625 626.046875 723.347656 622.605469 719.257813 L 626.15625 716.269531 C 629.277344 719.230469 632.664063 720.710938 636.324219 720.710938 C 638.855469 720.710938 640.9375 720.0625 642.582031 718.773438 C 644.222656 717.480469 645.042969 715.625 645.042969 713.203125 C 645.042969 710.460938 643.1875 708.414063 639.472656 707.070313 C 636.082031 705.886719 632.664063 704.726563 629.222656 703.597656 C 625.507813 701.714844 623.652344 698.753906 623.652344 694.71875 C 623.652344 691.167969 625.023438 688.261719 627.769531 686.003906 C 630.296875 683.957031 633.390625 682.9375 637.050781 682.9375 C 640.65625 682.9375 644.691406 684.523438 649.15625 687.699219 L 646.496094 691.410156 C 643.105469 688.882813 639.875 687.617188 636.808594 687.617188 C 634.386719 687.617188 632.371094 688.210938 630.757813 689.394531 C 629.140625 690.578125 628.335938 692.273438 628.335938 694.476563 C 628.335938 697.222656 630.191406 699.214844 633.902344 700.449219 C 637.292969 701.527344 640.710938 702.628906 644.152344 703.761719 C 647.867188 705.644531 649.722656 708.710938 649.722656 712.960938 Z M 696.167969 724.421875 L 691.488281 725.066406 L 691.488281 696.171875 C 691.488281 690.144531 688.070313 687.132813 681.238281 687.132813 C 678.492188 687.132813 675.9375 687.992188 673.570313 689.714844 C 670.664063 691.816406 669.210938 694.640625 669.210938 698.191406 L 669.210938 724.421875 L 664.53125 725.066406 L 664.53125 683.90625 L 669.210938 682.9375 L 669.210938 689.636719 L 669.371094 689.636719 C 670.503906 687.753906 672.144531 686.164063 674.296875 684.875 C 676.449219 683.582031 678.707031 682.9375 681.078125 682.9375 C 691.136719 682.9375 696.167969 687.699219 696.167969 697.222656 Z M 739.710938 724.421875 L 735.027344 725.390625 L 735.027344 720.304688 L 734.867188 720.304688 C 733.039063 723.695313 729.726563 725.390625 724.941406 725.390625 C 720.636719 725.390625 717.03125 724.125 714.125 721.597656 C 711.058594 718.960938 709.523438 715.515625 709.523438 711.265625 C 709.523438 706.746094 710.882813 703.058594 713.601563 700.207031 C 716.316406 697.355469 719.910156 695.929688 724.375 695.929688 C 727.925781 695.929688 731.476563 697.492188 735.027344 700.613281 L 735.027344 693.832031 C 735.027344 692.109375 734.113281 690.644531 732.285156 689.433594 C 730.453125 688.222656 728.195313 687.617188 725.503906 687.617188 C 723.890625 687.617188 721.898438 687.992188 719.53125 688.746094 C 717.59375 689.445313 715.65625 690.144531 713.71875 690.847656 L 715.253906 685.359375 C 719.183594 683.742188 723.109375 682.9375 727.039063 682.9375 C 730.480469 682.9375 733.386719 683.769531 735.753906 685.4375 C 738.390625 687.320313 739.710938 689.90625 739.710938 693.1875 Z M 725.101563 700.613281 C 721.925781 700.613281 719.316406 701.59375 717.273438 703.558594 C 715.226563 705.523438 714.203125 708.089844 714.203125 711.265625 C 714.203125 714.117188 715.363281 716.433594 717.675781 718.207031 C 719.828125 719.875 722.355469 720.710938 725.261719 720.710938 C 728.113281 720.710938 730.453125 719.769531 732.285156 717.882813 C 734.113281 716 735.027344 713.605469 735.027344 710.703125 C 735.027344 707.742188 734.101563 705.320313 732.246094 703.4375 C 730.386719 701.554688 728.007813 700.613281 725.101563 700.613281 Z M 775.503906 682.9375 C 780.074219 682.9375 784.703125 684.523438 789.386719 687.699219 L 786.480469 691.492188 C 783.519531 688.910156 779.78125 687.617188 775.261719 687.617188 C 770.417969 687.617188 766.394531 689.191406 763.195313 692.339844 C 759.992188 695.488281 758.390625 699.480469 758.390625 704.324219 C 758.390625 708.738281 759.910156 712.570313 762.953125 715.828125 C 765.992188 719.082031 769.746094 720.710938 774.210938 720.710938 C 778.625 720.710938 782.632813 719.335938 786.238281 716.59375 L 789.144531 720.226563 C 787.582031 721.730469 785.445313 722.96875 782.726563 723.9375 C 780.007813 724.90625 777.304688 725.390625 774.613281 725.390625 C 768.695313 725.390625 763.730469 723.359375 759.722656 719.296875 C 755.714844 715.234375 753.710938 710.054688 753.710938 703.761719 C 753.710938 697.734375 755.917969 692.703125 760.328125 688.667969 C 764.578125 684.847656 769.636719 682.9375 775.503906 682.9375 Z M 832.359375 722.324219 L 829.375 725.066406 L 808.46875 704.726563 L 808.46875 724.421875 L 803.789063 725.390625 L 803.789063 666.953125 L 808.46875 665.988281 L 808.46875 703.761719 L 826.722656 682.453125 L 830.421875 684.710938 L 814.039063 703.761719 Z M 832.359375 722.324219 "/>
<path style=" stroke:none;fill-rule:nonzero;fill:rgb(81.323242%,64.852905%,31.272888%);fill-opacity:1;" d="M 586.8125 724.421875 L 581.886719 725.066406 L 581.886719 669.054688 L 586.8125 667.761719 Z M 586.8125 724.421875 "/>
</g>
</svg>
