<?xml version="1.0" encoding="utf-8"?>
<!-- Generator: Adobe Illustrator 17.0.0, SVG Export Plug-In . SVG Version: 6.00 Build 0)  -->
<!DOCTYPE svg PUBLIC "-//W3C//DTD SVG 1.1//EN" "http://www.w3.org/Graphics/SVG/1.1/DTD/svg11.dtd">
<svg version="1.1" id="Layer_1" xmlns="http://www.w3.org/2000/svg" xmlns:xlink="http://www.w3.org/1999/xlink" x="0px" y="0px"
	 width="42px" height="64px" viewBox="0 0 42 64" enable-background="new 0 0 42 64" xml:space="preserve">
<path d="M42,21.568C42,33.48,21,64,21,64S0,33.48,0,21.568S9.402,0,21,0S42,9.656,42,21.568z"/>
<g>
	<circle fill="#FFFFFF" cx="21" cy="21" r="19"/>
</g>
<g>
	<g>
		<g>
			<path fill="#020202" d="M10.929,21.264c0.055,0.524,0.095,0.763,0.143,1.283c-1.362,0.035-2.692-0.013-4.047-0.156
				c-0.2-1.867-0.401-3.734-0.601-5.6c1.327,0.095,2.621,0.143,3.956,0.089c0.061,0.572,0.095,0.858,0.143,1.382
				c-0.806,0.02-1.601,0.017-2.406-0.01c0.035,0.334,0.048,0.477,0.095,0.81c0.685,0.048,1.382,0.048,2.049,0.048
				c0.056,0.524,0.095,0.763,0.143,1.293c-0.687,0.016-1.374,0-2.06-0.05c0.039,0.381,0.048,0.524,0.095,0.858
				c0.834,0.095,1.652,0.095,2.51,0.055H10.929z"/>
			<path fill="#020202" d="M12.925,22.413c-0.203-1.89-0.406-3.78-0.609-5.67c0.615-0.06,0.922-0.095,1.534-0.175
				c0.156,1.43,0.334,2.907,0.477,4.356c0.842-0.131,1.682-0.284,2.514-0.471c0.057,0.524,0.095,0.81,0.143,1.334
				c-1.338,0.281-2.698,0.472-4.081,0.626H12.925z"/>
			<path fill="#020202" d="M18.316,21.471c-0.201-1.872-0.402-3.744-0.603-5.616c0.708-0.162,1.415-0.328,2.121-0.498
				c0.456-0.109,0.865-0.132,1.227-0.069c0.362,0.048,0.667,0.191,0.953,0.385c0.26,0.191,0.477,0.429,0.62,0.763
				c0.155,0.286,0.238,0.667,0.286,1.031c0.045,0.429,0,0.822-0.074,1.199c-0.095,0.377-0.251,0.719-0.468,1.001
				c-0.217,0.305-0.489,0.568-0.815,0.788c-0.327,0.22-0.7,0.382-1.119,0.486c-0.714,0.173-1.44,0.363-2.107,0.529H18.316z
				 M21.375,17.838c-0.023-0.215-0.072-0.404-0.149-0.568c-0.076-0.163-0.174-0.295-0.293-0.395
				c-0.12-0.099-0.261-0.165-0.423-0.197c-0.163-0.032-0.34-0.025-0.531,0.022c-0.242,0.06-0.363,0.09-0.605,0.143
				c0.104,0.953,0.191,1.954,0.334,2.921c0.242-0.061,0.363-0.092,0.605-0.153c0.196-0.05,0.368-0.132,0.515-0.244
				c0.147-0.113,0.266-0.249,0.358-0.407c0.092-0.158,0.155-0.334,0.191-0.526c0.015-0.18,0.011-0.37,0.011-0.596H21.375z"/>
			<path fill="#020202" d="M23.893,20.104c0.475-2.001,0.955-4.001,1.467-5.994c0.495-0.079,0.743-0.116,1.239-0.184
				c0.91,1.763,1.811,3.479,2.669,5.269c-0.65,0.062-0.973,0.102-1.62,0.193c-0.183-0.434-0.275-0.649-0.458-1.076
				c-0.592,0.093-0.887,0.146-1.477,0.26c-0.084,0.467-0.125,0.701-0.209,1.172c-0.645,0.131-0.971,0.226-1.591,0.36H23.893z
				 M26.145,15.564c-0.128,0.764-0.192,1.151-0.318,1.936c0.403-0.079,0.604-0.116,1.008-0.185
				c-0.276-0.682-0.396-1.063-0.682-1.751H26.145z"/>
			<path fill="#020202" d="M29.99,19.135c-0.197-1.835-0.394-3.671-0.591-5.507c0.861-0.062,1.724-0.094,2.587-0.088
				c0.276,0,0.524,0.048,0.763,0.18c0.246,0.095,0.477,0.286,0.667,0.459c0.187,0.191,0.334,0.381,0.477,0.62
				c0.121,0.238,0.191,0.477,0.238,0.709c0.034,0.321-0.006,0.612-0.122,0.872c-0.115,0.26-0.293,0.464-0.531,0.62
				c0.509,0.715,1.001,1.477,1.525,2.222c-0.711-0.09-1.064-0.119-1.769-0.153c-0.421-0.603-0.844-1.206-1.269-1.807
				c-0.233-0.003-0.349-0.003-0.581,0c0.076,0.715,0.095,1.048,0.191,1.784c-0.659,0.019-0.989,0.066-1.561,0.088H29.99z
				 M31.204,15.976c0.391-0.006,0.587-0.006,1.001,0.004c0.096,0,0.18-0.045,0.251-0.144c0.071-0.099,0.098-0.239,0.078-0.422
				c-0.02-0.188-0.083-0.333-0.19-0.435c-0.106-0.102-0.207-0.153-0.303-0.154c-0.377-0.006-0.564-0.005-0.939,0
				C31.13,15.3,31.157,15.538,31.204,15.976L31.204,15.976z"/>
		</g>
		<path fill="#020202" d="M20.31,14.427c-4.42,1.027-8.756,1.787-13.314,1.607c-0.751-0.042-1.073-0.449-0.968-1.164
			c0.201-1.361,0.981-2.549,1.946-3.476c1.965-1.886,4.306-3.185,6.861-4.041c1.917-0.643,3.95-0.97,5.974-1.087
			c3.119-0.18,6.196,0.095,9.151,1.281c1.486,0.62,2.86,1.573,3.717,2.95c0.326,0.524,0.572,1.096,0.715,1.668
			c0.131,0.416-0.158,0.664-0.591,0.668c-0.093,0.001-0.189-0.01-0.284-0.015c-4.497-0.187-8.794,0.576-13.226,1.609H20.31z
			 M11.252,13.527c0.458-0.03,0.775-0.354,0.734-0.743c-0.038-0.356-0.428-0.628-0.856-0.601c-0.408,0.026-0.757,0.369-0.731,0.715
			c0.025,0.352,0.456,0.638,0.837,0.628H11.252z M29.039,10.714c0.439-0.032,0.76-0.3,0.737-0.624
			c-0.023-0.32-0.451-0.592-0.869-0.549c-0.407,0.042-0.762,0.365-0.731,0.66c0.031,0.285,0.455,0.524,0.884,0.513H29.039z
			 M24.189,7.694c-0.409,0.06-0.76,0.396-0.724,0.694c0.035,0.286,0.477,0.524,0.858,0.466c0.387-0.058,0.753-0.391,0.728-0.684
			c-0.031-0.353-0.375-0.543-0.852-0.476H24.189z M15.314,8.987c-0.439,0.06-0.784,0.425-0.732,0.81
			c0.049,0.334,0.477,0.62,0.858,0.554c0.39-0.061,0.738-0.46,0.7-0.803c-0.026-0.396-0.376-0.634-0.805-0.561H15.314z
			 M20.063,12.126c0.391-0.08,0.759-0.468,0.733-0.775c-0.025-0.301-0.457-0.548-0.85-0.486c-0.401,0.063-0.779,0.477-0.737,0.81
			c0.043,0.337,0.415,0.528,0.844,0.451H20.063z"/>
		<path fill="#020202" d="M21.589,26.013c4.435-0.899,8.84-1.561,13.351-1.552c0.513,0,0.953,0.286,1.001,0.906
			c0.068,0.715,0.191,1.477,0,2.171c-0.329,1.365-1.637,2.543-3.083,2.709c-7.083,0.758-14.168,1.505-21.247,2.288
			c-2.038,0.232-3.997-1.147-4.17-3.252c-0.029-0.349-0.073-0.698-0.1-1.046c-0.03-0.397,0.181-0.633,0.576-0.666
			c0.092-0.008,0.191,0,0.286,0.001c4.551-0.024,8.943-0.643,13.375-1.559H21.589z"/>
		<g>
			<path fill="#020202" d="M7.246,26.726c-0.106-0.991-0.213-1.983-0.319-2.974c0.56,0.048,0.858,0.095,1.382,0.095
				c0.148,0,0.286,0.048,0.429,0.107c0.131,0.048,0.238,0.143,0.334,0.237c0.099,0.095,0.191,0.191,0.238,0.334
				c0.064,0.143,0.095,0.238,0.095,0.362c0.018,0.167-0.004,0.322-0.065,0.465c-0.061,0.143-0.154,0.261-0.281,0.334
				c0.317,0.429,0.477,0.62,0.81,1.047c-0.373,0.008-0.559,0.01-0.933,0.009c-0.267-0.354-0.401-0.533-0.669-0.898
				c-0.124-0.004-0.186-0.007-0.311-0.012c0.039,0.381,0.048,0.524,0.095,0.897c-0.307,0.01-0.487,0.01-0.82-0.002H7.246z
				 M7.905,25.159c0.21,0,0.334,0,0.524,0.024c0.051,0,0.096-0.024,0.134-0.076c0.038-0.053,0.052-0.128,0.041-0.226
				c-0.011-0.1-0.045-0.178-0.102-0.233c-0.057-0.055-0.111-0.084-0.162-0.086c-0.201-0.01-0.302-0.015-0.504-0.029
				c0.027,0.251,0.061,0.394,0.061,0.626H7.905z"/>
			<path fill="#020202" d="M12.329,25.968c0.029,0.286,0.048,0.381,0.095,0.67c-0.711,0.054-1.423,0.092-2.135,0.095
				c-0.102-0.947-0.204-1.894-0.305-2.842c0.701-0.003,1.402-0.031,2.1-0.08c0.029,0.286,0.048,0.429,0.095,0.667
				c-0.509,0.036-0.763,0.05-1.274,0.068c0.017,0.143,0.048,0.238,0.048,0.398c0.436-0.016,0.654-0.028,1.089-0.057
				c0.027,0.238,0.048,0.381,0.048,0.626c-0.435,0.03-0.652,0.041-1.089,0.059c0.019,0.191,0.048,0.286,0.048,0.429
				c0.495,0.021,0.759,0.021,1.283-0.033H12.329z"/>
			<path fill="#020202" d="M14.466,24.527c-0.089-0.038-0.181-0.07-0.274-0.096c-0.079-0.023-0.167-0.043-0.263-0.061
				c-0.097-0.017-0.19-0.021-0.279-0.011c-0.073,0.008-0.13,0.024-0.171,0.05c-0.041,0.026-0.059,0.064-0.053,0.095
				c0.004,0.048,0,0.048,0.048,0.088c0.028,0,0.048,0.048,0.095,0.054c0.05,0,0.095,0.048,0.191,0.048
				c0.071,0,0.143,0.048,0.238,0.042c0.14,0.048,0.286,0.048,0.381,0.088c0.115,0.048,0.238,0.095,0.286,0.143
				c0.085,0.048,0.143,0.143,0.191,0.214c0.052,0.095,0.095,0.191,0.095,0.33c0.018,0.191,0,0.316-0.053,0.429
				c-0.053,0.122-0.13,0.224-0.23,0.305c-0.1,0.081-0.216,0.144-0.349,0.189c-0.132,0.045-0.267,0.074-0.404,0.095
				c-0.109,0.011-0.222,0.015-0.338,0.01c-0.116-0.005-0.233-0.016-0.349-0.034c-0.117-0.019-0.23-0.043-0.339-0.073
				c-0.109-0.031-0.212-0.067-0.306-0.11c0.112-0.28,0.169-0.421,0.281-0.703c0.104,0.048,0.191,0.095,0.334,0.143
				c0.093,0.048,0.191,0.048,0.334,0.077c0.117,0,0.238,0.048,0.334,0.012c0.09-0.01,0.151-0.028,0.183-0.053
				c0.032-0.026,0.047-0.058,0.043-0.094c-0.004-0.04-0.025-0.071-0.063-0.095c-0.038-0.024-0.089-0.043-0.153-0.058
				c-0.064-0.015-0.137-0.028-0.219-0.041c-0.082-0.013-0.17-0.03-0.262-0.05c-0.136-0.03-0.254-0.064-0.355-0.104
				c-0.101-0.04-0.185-0.089-0.253-0.145c-0.068-0.057-0.122-0.123-0.16-0.2c-0.038-0.077-0.062-0.167-0.073-0.27
				c-0.017-0.156-0.001-0.296,0.046-0.42c0.048-0.124,0.119-0.231,0.214-0.32c0.095-0.089,0.207-0.161,0.336-0.215
				c0.128-0.054,0.267-0.09,0.415-0.107c0.109-0.012,0.216-0.014,0.322-0.007c0.105,0,0.191,0,0.286,0.048
				c0.1,0,0.191,0.048,0.286,0.066c0.088,0.048,0.143,0.048,0.238,0.073c-0.059,0.26-0.123,0.403-0.218,0.67H14.466z"/>
			<path fill="#020202" d="M17.629,23.748c-0.338,0.073-0.508,0.109-0.846,0.179c0.078,0.715,0.143,1.43,0.238,2.192
				c-0.325,0.062-0.488,0.082-0.814,0.126c-0.077-0.722-0.155-1.443-0.232-2.164c-0.343,0.052-0.514,0.077-0.857,0.143
				c-0.029-0.273-0.044-0.41-0.073-0.684c0.845-0.121,1.681-0.266,2.514-0.455c0.025,0.269,0.063,0.364,0.063,0.663H17.629z"/>
			<path fill="#020202" d="M17.719,25.968c0.267-1.043,0.53-2.087,0.788-3.132c0.262-0.061,0.393-0.091,0.654-0.153
				c0.471,0.906,0.953,1.811,1.43,2.694c-0.342,0.073-0.513,0.109-0.855,0.181c-0.096-0.214-0.144-0.32-0.24-0.533
				c-0.314,0.068-0.47,0.102-0.784,0.168c-0.045,0.242-0.068,0.362-0.113,0.602c-0.364,0.084-0.548,0.084-0.882,0.173H17.719z
				 M18.924,23.599c-0.067,0.417-0.101,0.624-0.169,1.038c0.214-0.047,0.321-0.07,0.535-0.117c-0.146-0.355-0.239-0.546-0.382-0.921
				H18.924z"/>
			<path fill="#020202" d="M21.989,24.355c0.094-0.021,0.172-0.06,0.234-0.117c0.062-0.057,0.11-0.125,0.143-0.203
				c0.034-0.078,0.056-0.165,0.065-0.26c0.01-0.095,0.009-0.192-0.001-0.291c-0.066-0.619-0.1-0.928-0.166-1.545
				c0.323-0.077,0.484-0.116,0.807-0.192c0.067,0.62,0.095,0.953,0.143,1.555c0.022,0.191,0,0.414-0.015,0.62
				c-0.033,0.195-0.097,0.372-0.193,0.529c-0.096,0.158-0.224,0.293-0.383,0.405c-0.159,0.112-0.352,0.192-0.579,0.238
				c-0.235,0.05-0.441,0.053-0.616,0.009c-0.176-0.044-0.325-0.121-0.447-0.231c-0.122-0.11-0.217-0.248-0.286-0.413
				c-0.069-0.165-0.113-0.346-0.135-0.544c-0.065-0.609-0.098-0.913-0.163-1.523c0.323-0.078,0.484-0.117,0.806-0.195
				c0.066,0.62,0.095,0.906,0.143,1.532c0.01,0.095,0.048,0.191,0.048,0.277c0.029,0.095,0.048,0.143,0.095,0.238
				c0.049,0.048,0.095,0.095,0.191,0.129c0.135-0.019,0.233-0.019,0.328-0.019H21.989z"/>
			<path fill="#020202" d="M23.961,24.66c-0.109-1.015-0.218-2.03-0.327-3.045c0.54-0.125,0.81-0.186,1.351-0.304
				c0.143-0.031,0.28-0.029,0.429,0.007c0.128,0.048,0.238,0.095,0.334,0.175c0.098,0.095,0.191,0.191,0.238,0.286
				c0.064,0.143,0.095,0.238,0.095,0.376c0.019,0.18,0,0.353-0.059,0.519c-0.059,0.167-0.149,0.317-0.271,0.429
				c0.315,0.381,0.477,0.62,0.81,1.035c-0.368,0.05-0.551,0.084-0.917,0.155c-0.265-0.338-0.398-0.506-0.663-0.838
				c-0.121,0.025-0.182,0.038-0.303,0.063c0.041,0.381,0.048,0.572,0.095,0.946C24.446,24.546,24.294,24.593,23.961,24.66
				L23.961,24.66z M24.59,22.815c0.204-0.044,0.306-0.066,0.51-0.109c0.05-0.01,0.093-0.049,0.13-0.116
				c0.037-0.067,0.05-0.152,0.038-0.256c-0.011-0.106-0.045-0.183-0.101-0.228c-0.056-0.045-0.109-0.063-0.158-0.052
				c-0.196,0.042-0.294,0.063-0.489,0.095c0.028,0.252,0.06,0.395,0.06,0.665H24.59z"/>
			<path fill="#020202" d="M26.631,24.158c0.256-1.089,0.514-2.179,0.774-3.268c0.264-0.037,0.397-0.054,0.661-0.087
				c0.487,1.001,0.953,2.002,1.43,3.022c-0.346,0.032-0.519,0.05-0.865,0.087c-0.099-0.24-0.148-0.36-0.247-0.599
				c-0.317,0.036-0.475,0.054-0.792,0.094c-0.044,0.255-0.066,0.382-0.11,0.638c-0.331,0.023-0.519,0.071-0.853,0.112H26.631z
				 M27.831,21.735c-0.066,0.432-0.099,0.649-0.164,1.083c0.216-0.027,0.324-0.041,0.54-0.066c-0.151-0.398-0.244-0.589-0.387-1.017
				H27.831z"/>
			<path fill="#020202" d="M30.492,22.178c0.066,0.62,0.095,0.906,0.143,1.551c-0.328,0.024-0.492,0.037-0.82,0.048
				c-0.112-1.049-0.225-2.098-0.338-3.147c0.255-0.023,0.383-0.033,0.64-0.052c0.461,0.524,0.906,1.001,1.382,1.525
				c-0.069-0.638-0.102-0.956-0.171-1.591c0.33-0.012,0.495-0.016,0.825-0.019c0.112,1.049,0.238,2.097,0.334,3.098
				c-0.262,0.009-0.393,0.014-0.655,0.027c-0.435-0.454-0.866-0.93-1.343-1.439H30.492z"/>
			<path fill="#020202" d="M35.23,21.363c-0.35-0.031-0.524-0.044-0.873-0.064c0.083,0.763,0.143,1.525,0.238,2.335
				c-0.332-0.007-0.498-0.008-0.828-0.007c-0.084-0.781-0.168-1.562-0.252-2.343c-0.349-0.01-0.523-0.012-0.871-0.011
				c-0.032-0.297-0.048-0.446-0.08-0.743c0.861,0,1.716,0.048,2.574,0.135c0.045,0.259,0.069,0.402,0.069,0.698H35.23z"/>
		</g>
	</g>
</g>
</svg>
